# xmcd
# 
# Track frame offsets:
#     150
#     18518
#     37392
#     81082
#     102626
#     121636
#     163832
#     185202
#     203267
#     220995
#     238399
#     259299
#     283319
#     301844
#     321049
# 
# Disc length: 4662
# 
# Revision: 8
# Processed by: cddbd v1.5.2PL0 Copyright (c) Steve Scherf et al.
# Submitted via: fre:ac v1.0.17
# 
DISCID=e212340f
DTITLE=萩原雪歩、四条貴音 - THE IDOLM@STER MASTER SPECIAL 04
DYEAR=2009
DGENRE=Game
TTITLE0=ALRIGHT*
TTITLE1=フラワーガール
TTITLE2=トーク01
TTITLE3=風と雲と私
TTITLE4=やさしい両手
TTITLE5=トーク02
TTITLE6=オーバーマスター (M@STER VERSION)
TTITLE7=Colorful Days (M@STER VERSION)
TTITLE8=トーク03
TTITLE9=shiny smile (REM@STER-B) 
TTITLE10=トーク04
TTITLE11=L・O・B・M
TTITLE12=ALRIGHT* (オリジナル・カラオケ)
TTITLE13=フラワーガール (オリジナル・カラオケ)
TTITLE14=ボーナス・トラック・トーク
EXTD=YEAR: 2009
EXTT0=
EXTT1=
EXTT2=
EXTT3=
EXTT4=
EXTT5=
EXTT6=
EXTT7=
EXTT8=
EXTT9=
EXTT10=
EXTT11=
EXTT12=
EXTT13=
EXTT14=
PLAYORDER=
